<svg width="18" height="18" viewBox="0 0 18 18" fill="none" xmlns="http://www.w3.org/2000/svg">
<path d="M10.7082 0.165163C5.82663 -0.7781 1.10781 2.41485 0.164519 7.29388C-0.776415 12.1729 2.41427 16.8939 7.29345 17.8348C12.1726 18.7781 16.8914 15.5852 17.8347 10.7061C18.778 5.8271 15.5873 1.10843 10.7082 0.165163ZM15.8939 10.3312C15.1581 14.1396 11.4746 16.6298 7.66841 15.8941C3.85987 15.1583 1.36958 11.4749 2.10534 7.66882C2.84111 3.8604 6.52467 1.37018 10.3308 2.10357C14.1394 2.84167 16.6297 6.52512 15.8939 10.3312Z" fill="white"/>
<path d="M13.0688 6.21856C12.6962 6.12188 12.458 6.42136 12.2764 6.85291C12.0948 7.28445 11.4817 8.56492 11.4817 8.56492C11.4817 8.56492 11.3072 8.94694 10.9723 8.80781C10.72 8.7017 10.7836 8.31025 10.8426 7.73721C10.9015 7.16418 11.227 4.71405 11.227 4.71405C11.227 4.71405 11.352 3.9335 10.8497 3.92407C10.3474 3.91464 10.2294 4.46409 10.2059 4.66217C10.1799 4.86026 9.51254 8.3975 9.51254 8.3975C9.51254 8.3975 9.42293 8.78659 9.14466 8.76301C8.88525 8.74178 8.83573 8.35976 8.83573 8.35976L7.99384 4.26836C7.99384 4.26836 7.84292 3.51847 7.34533 3.59393C6.7487 3.6859 6.89963 4.50182 6.89963 4.50182L7.52456 8.40693C7.52456 8.40693 7.61653 8.77951 7.251 8.85969C6.94915 8.92808 6.73219 8.49889 6.73219 8.49889L5.14982 5.60072C5.14982 5.60072 4.84325 5.07721 4.44235 5.23993C4.06031 5.39792 4.19474 5.92143 4.21596 6.00161C4.23718 6.08178 5.84314 10.6448 5.84314 10.6448L8.26504 9.89493C8.64943 9.76287 9.33804 9.58129 9.55263 10.0671C9.75544 10.5269 9.54792 10.8382 8.97015 11.1282C8.46549 11.3806 7.27694 11.8145 6.7204 12.0739C6.74162 12.0597 6.36431 12.18 6.47043 12.6304C6.70153 13.9014 7.91366 14.7905 9.26964 14.7315C9.96532 14.7009 10.6115 14.4367 11.0454 13.9675C11.3543 13.6444 11.5194 13.4298 11.7033 12.819C12.2504 11.008 13.2291 7.04627 13.2291 7.04627C13.2291 7.04627 13.4414 6.31525 13.0688 6.21856Z" fill="white"/>
</svg>
