<svg width="601" height="367" viewBox="0 0 601 367" fill="none" xmlns="http://www.w3.org/2000/svg"><g clip-path="url(#clip0)"><path opacity=".5" d="M601 329.26l-.29.21c-29.78 21.34-152.65 37.34-299.71 37.34-147.06 0-269.93-16-299.70001-37.34L1 329.26c9.49-.81 140.17-1.45 300-1.45s290.52.64 300 1.45z" fill="url(#paint0_linear)"/><path opacity=".5" d="M601 329.95c0 .16-.29.29-.85.44-11.61 3-141.33 5.36-299.65 5.36-158.32 0-288-2.36-299.65-5.36-.56-.15-.85-.28-.85-.44 0-.16.18999-.23.54999-.35C10.04 326.6 140.7 324.17 300.55 324.17c159.85 0 290.47 2.4 300 5.43.26.12.45.21.45.35zM426.73 253.22c-.001 6.213.761 12.403 2.27 18.43 22.851-24.659 38.237-55.295 44.37-88.35-13.811 5.745-25.611 15.451-33.912 27.895-8.3 12.443-12.729 27.067-12.728 42.025zM350.2 5.04001l-11.27-4.81L333.62 10.81c-3.69-.6997-7.475-.7404-11.18-.12L317.35.05 306 4.57001 309.69 15.77a31.63375 31.63375 0 00-8 7.82l-11.12-3.93-4.8 11.27 10.53 5.31c-.7 3.6904-.74 7.4755-.12 11.18l-10.65 5.09 4.57 11.37 11.2-3.69c2.113 3.1085 4.76 5.8172 7.82 8l-3.93 11.12 11.27 4.81 5.31-10.53c3.69.6998 7.475.7404 11.18.12L338 84.34l11.4-4.53-3.7-11.2a31.63375 31.63375 0 008-7.82l11.12 3.93 4.81-11.27-10.53-5.31c.7-3.6903.74-7.4755.12-11.18l10.64-5.15-4.57-11.36-11.2 3.69a31.6422 31.6422 0 00-7.82-8l3.93-11.09999zM342.69 48.57c-1.266 2.9639-3.383 5.4859-6.082 7.2471-2.7 1.7611-5.861 2.6825-9.084 2.6476-3.223-.0349-6.363-1.0246-9.024-2.8439-2.66-1.8192-4.722-4.3865-5.924-7.3771-1.201-2.9907-1.49-6.2706-.828-9.425.662-3.1545 2.244-6.0419 4.547-8.2973 2.302-2.2555 5.222-3.7777 8.389-4.3742 3.168-.5965 6.441-.2406 9.406 1.0228 3.977 1.6939 7.117 4.8978 8.732 8.9072 1.615 4.0093 1.571 8.4958-.122 12.4728l-.01.02zM254.7 36.81h-8.9l-.55 8.55c-2.666.5894-5.208 1.642-7.51 3.11l-6.43-5.66L225 49.1l5.66 6.44c-1.47 2.3013-2.522 4.8435-3.11 7.51l-8.55.54v8.9l8.55.55c.59 2.6628 1.642 5.2014 3.11 7.5L225 86.98l6.29 6.29 6.43-5.66a23.33674 23.33674 0 007.51 3.11l.55 8.55h8.9l.54-8.55a23.24274 23.24274 0 007.51-3.11l6.43 5.66 6.3-6.29-5.67-6.44c1.476-2.2943 2.529-4.8344 3.11-7.5l8.56-.55v-8.9l-8.56-.54c-.579-2.6693-1.632-5.213-3.11-7.51l5.67-6.44-6.3-6.29-6.43 5.66a23.24274 23.24274 0 00-7.51-3.11l-.52-8.55zm7.4 31.23c.002 2.3441-.691 4.6362-1.992 6.5862a11.8506 11.8506 0 01-5.316 4.3689c-2.165.8984-4.548 1.1345-6.848.6784-2.299-.4561-4.411-1.5839-6.07-3.2407-1.658-1.6569-2.788-3.7684-3.246-6.0673-.458-2.299-.224-4.6821.673-6.848a11.85744 11.85744 0 014.364-5.3197c1.949-1.3026 4.241-1.9978 6.585-1.9978 3.14 0 6.152 1.2474 8.372 3.4678 2.221 2.2205 3.468 5.232 3.468 8.3722h.01z" fill="#CDD9FF"/><path d="M149.54 124.05H451.7c2.652 0 5.196 1.054 7.071 2.929 1.875 1.875 2.929 4.419 2.929 7.071V328.9H139.54V134.05c0-2.652 1.054-5.196 2.929-7.071 1.875-1.875 4.419-2.929 7.071-2.929z" fill="#AEB3FC"/><path d="M455 146.09v176.14H146.21V146.09c-.003-2.006.39-3.992 1.156-5.846.766-1.854 1.889-3.538 3.306-4.957 1.418-1.42 3.101-2.545 4.954-3.313 1.852-.769 3.838-1.164 5.844-1.164h278.3c4.045.008 7.922 1.622 10.778 4.487 2.856 2.865 4.457 6.748 4.452 10.793z" fill="url(#paint1_linear)"/><path d="M273.59 221.57h-8.07v10.39h-15v-10.39h-28.7v-10l24.36-33.9h15.9L240 209.39h11v-9.23h14.5v9.23h8.07l.02 12.18zM276.69 204.81c0-17.92 10.09-28.24 24-28.24s23.89 10.32 23.89 28.24c0 17.92-10.08 28.23-23.89 28.23s-24-10.31-24-28.23zm32.42 0c0-11.4-3.56-15.67-8.45-15.67-4.89 0-8.53 4.26-8.53 15.67s3.57 15.66 8.53 15.66c4.96 0 8.45-4.25 8.45-15.66zM381 221.57h-8v10.39h-15v-10.39h-28.7v-10l24.35-33.9h15.9l-22.1 31.73h11v-9.23H373v9.23h8v12.17z" fill="#7D77B8"/><path d="M448.1 130.81h-295c-1.835 0-3.595.729-4.893 2.027-1.298 1.298-2.027 3.058-2.027 4.893v9.91H455v-9.91c0-1.832-.726-3.589-2.02-4.886-1.293-1.297-3.048-2.029-4.88-2.034z" fill="#CDD9FF"/><path d="M162.9 142.37c1.729 0 3.13-1.401 3.13-3.13 0-1.729-1.401-3.13-3.13-3.13-1.729 0-3.13 1.401-3.13 3.13 0 1.729 1.401 3.13 3.13 3.13z" fill="#FF6382"/><path d="M174.46 142.37c1.729 0 3.13-1.401 3.13-3.13 0-1.729-1.401-3.13-3.13-3.13-1.729 0-3.13 1.401-3.13 3.13 0 1.729 1.401 3.13 3.13 3.13z" fill="#FEC40C"/><path d="M186.02 142.37c1.729 0 3.13-1.401 3.13-3.13 0-1.729-1.401-3.13-3.13-3.13-1.729 0-3.13 1.401-3.13 3.13 0 1.729 1.401 3.13 3.13 3.13z" fill="#10C392"/><path d="M219.86 135.87h161.52c.443-.001.883.085 1.293.254.41.168.782.416 1.096.729.314.314.564.686.734 1.095.169.41.257.849.257 1.292 0 .896-.356 1.756-.99 2.39-.634.634-1.494.99-2.39.99H219.86c-.896 0-1.756-.356-2.39-.99-.634-.634-.99-1.494-.99-2.39 0-.443.088-.882.257-1.292.17-.409.42-.781.734-1.095.314-.313.686-.561 1.096-.729.41-.169.85-.255 1.293-.254zM404.57 135.87h34.64c.894 0 1.751.355 2.383.987.632.632.987 1.489.987 2.383.001.443-.085.883-.254 1.293-.168.41-.416.782-.73 1.096-.313.314-.685.564-1.094.734-.41.17-.849.257-1.292.257h-34.64c-.896 0-1.756-.356-2.39-.99-.634-.634-.99-1.494-.99-2.39 0-.443.088-.882.258-1.292.169-.409.419-.781.733-1.095.314-.313.686-.561 1.096-.729.41-.169.85-.255 1.293-.254z" fill="#F3F7FF"/><path d="M482.55 67.91c.649-1.0839 1-2.3208 1.015-3.5843.015-1.2636-.305-2.5085-.929-3.6077-.623-1.0992-1.527-2.0133-2.619-2.6489a7.1386 7.1386 0 00-3.597-.9691c0-3.79-1.506-7.4247-4.185-10.1046-2.68-2.6799-6.315-4.1854-10.105-4.1854s-7.425 1.5055-10.105 4.1854c-2.679 2.6799-4.185 6.3146-4.185 10.1046a7.13057 7.13057 0 00-3.602.9632c-1.094.6349-1.999 1.5494-2.623 2.6497a7.12663 7.12663 0 00-.927 3.6115c.016 1.2647.369 2.5022 1.022 3.5856-9.66.47-16 1.27-16 2.18 0 1.45 16.31 2.63 36.42 2.63 20.11 0 36.42-1.18 36.42-2.63 0-.91-6.35-1.71-16-2.18zM557.79 138.05c.287-.477.477-1.005.559-1.555.083-.55.056-1.111-.079-1.651-.135-.539-.374-1.047-.706-1.494-.331-.447-.747-.824-1.224-1.11-.66-.392-1.413-.599-2.18-.6 0-2.246-.892-4.401-2.481-5.989-1.588-1.589-3.743-2.481-5.989-2.481s-4.401.892-5.989 2.481c-1.589 1.588-2.481 3.743-2.481 5.989-.751-.004-1.489.192-2.138.568-.65.377-1.187.919-1.557 1.572-.37.654-.559 1.394-.547 2.144.011.751.222 1.484.612 2.126-5.73.28-9.49.75-9.49 1.29 0 .86 9.66 1.56 21.59 1.56s21.59-.7 21.59-1.56c0-.53-3.76-1.01-9.49-1.29zM66 163.03a3.0898 3.0898 0 00.4402-1.551 3.09112 3.09112 0 00-.4009-1.562c-.2694-.475-.6604-.871-1.1328-1.147a3.0945 3.0945 0 00-1.5565-.42c-.0642-1.597-.744-3.108-1.8968-4.215-1.1529-1.108-2.6896-1.726-4.2882-1.726-1.5986 0-3.1353.618-4.2881 1.726-1.1529 1.107-1.8326 2.618-1.8969 4.215-.5469 0-1.084.145-1.5564.42-.4725.276-.8635.672-1.1329 1.147a3.09112 3.09112 0 00-.4009 1.562c.0069.547.1588 1.082.4402 1.551-4.18.2-6.92.55-6.92.94 0 .63 7.05 1.14 15.76 1.14s15.76-.51 15.76-1.14c.07-.39-2.72-.74-6.93-.94zM127.88 92.08c.34-.5632.565-1.1878.663-1.8381.097-.6503.066-1.3135-.093-1.9517a5.00667 5.00667 0 00-.833-1.7672c-.391-.5286-.883-.9748-1.447-1.313a5.07924 5.07924 0 00-2.58-.71c0-2.6522-1.054-5.1957-2.929-7.0711-1.875-1.8753-4.419-2.9289-7.071-2.9289s-5.196 1.0536-7.071 2.9289c-1.875 1.8754-2.929 4.4189-2.929 7.0711-1.326 0-2.598.5268-3.536 1.4645-.9372.9376-1.464 2.2094-1.464 3.5355-.0078.9093.238 1.8027.71 2.58-6.77.33-11.22.89-11.22 1.53 0 1 11.43 1.84 25.54 1.84s25.54-.82 25.54-1.84c-.05-.64-4.51-1.2-11.28-1.53z" fill="#DBE4FF"/><path d="M279.52 308.63s-7.73-5.73-5.85-17.42c1.88-11.69 13.46-7.61 14.19-20.34.73-12.73 4.59-20.14 13-20.66 8.41-.52 9.8 4.9 9.8 4.9s4.18-3.34 7.83 1.87c3.65 5.21-.94 17.12 7.62 24 8.56 6.88 7.61 19.62-1.25 26.5-8.86 6.88-45.34 1.15-45.34 1.15z" fill="url(#paint2_linear)"/><path opacity=".5" d="M300.62 353.08c24.853 0 45-2.167 45-4.84s-20.147-4.84-45-4.84-45 2.167-45 4.84 20.147 4.84 45 4.84z" fill="#CDD9FF"/><path d="M324.06 285.48c-2.505-1.432-5.197-2.505-8-3.19-2.031-.548-4.091-.982-6.17-1.3h-11.7c-2.079.318-4.139.752-6.17 1.3-2.803.685-5.495 1.758-8 3.19-5.21 3.23-6.78 29.73-6.67 33.7.11 3.97 10 8.87 11.27 9.39 5 1.483 10.184 2.257 15.4 2.3h.07a55.7804 55.7804 0 0015.4-2.3c1.25-.52 11.17-5.43 11.26-9.39.09-3.96-1.47-30.47-6.69-33.7z" fill="url(#paint3_linear)"/><path d="M304.29 295.08c.525 0 .95-.425.95-.95 0-.525-.425-.95-.95-.95-.525 0-.95.425-.95.95 0 .525.425.95.95.95zM304.29 305.93c.525 0 .95-.425.95-.95 0-.525-.425-.95-.95-.95-.525 0-.95.425-.95.95 0 .525.425.95.95.95z" fill="#fff"/><path d="M289.67 330.45s1.85 11.27 15.57 8.45c13.72-2.82 10.12-10.23 9.83-10.44-.29-.21-25.4 1.99-25.4 1.99z" fill="#2D132C"/><path d="M277.58 325.62l36.17 18.19-2 5.22-39.36-9.49c-1.906-.439-3.612-1.501-4.846-3.019-1.233-1.518-1.925-3.405-1.964-5.361 0-3.14 1.6-6.18 7.61-6.47 1.519-.077 3.033.243 4.39.93z" fill="url(#paint4_linear)"/><path d="M311.76 349.02l3.31.83s1.42 2.19 6.74 2.75 8.69-1.34 8.69-4.55-2.59-2.34-6.5-1.88c-2.164.1-4.327-.22-6.37-.94-1.32-.4-2.616-.878-3.88-1.43l-1.99 5.22z" fill="#2D132C"/><path d="M311.76 349.02l3.31.83s2.56-.33 2.56-4.62c-1.32-.4-2.616-.878-3.88-1.43l-1.99 5.22z" fill="#F9BF9D"/><path d="M316.68 348.81c1.271.558 2.62.919 4 1.07 4 .47 4.6-1 2.56-1.61-1.25-.35-3.9-1-5.74-1.45-.11.719-.391 1.402-.82 1.99z" fill="#801336"/><path d="M327.16 325.62L291 343.81l2 5.22 39.36-9.49c1.908-.435 3.615-1.497 4.85-3.016a8.762 8.762 0 001.96-5.364c0-3.14-1.6-6.18-7.61-6.47-1.523-.078-3.039.242-4.4.93z" fill="url(#paint5_linear)"/><path d="M293 349.02l-3.31.83s-1.42 2.19-6.74 2.75-8.68-1.34-8.68-4.55 2.58-2.34 6.49-1.88c2.164.1 4.327-.22 6.37-.94 1.317-.398 2.609-.872 3.87-1.42l2 5.21z" fill="#2D132C"/><path d="M293 349.02l-3.31.83s-2.56-.33-2.56-4.62c1.317-.398 2.609-.872 3.87-1.42l2 5.21z" fill="#F9BF9D"/><path d="M288.06 348.81c-1.271.56-2.62.921-4 1.07-4 .47-4.6-1-2.56-1.61 1.26-.35 3.9-1 5.74-1.45.11.719.391 1.402.82 1.99z" fill="#801336"/><path d="M290.65 310.88h26.77c1.432 0 2.806.569 3.818 1.582 1.013 1.012 1.582 2.386 1.582 3.818v18.08h-37.57v-18.08c0-1.432.569-2.806 1.582-3.818 1.012-1.013 2.386-1.582 3.818-1.582z" fill="#CDD9FF"/><path d="M304.03 326.12c1.933 0 3.5-1.567 3.5-3.5s-1.567-3.5-3.5-3.5-3.5 1.567-3.5 3.5 1.567 3.5 3.5 3.5z" fill="#F3F7FF"/><path d="M304.07 280.99v6.5l-1.66 3.7c-.058.131-.142.248-.246.346-.104.099-.227.175-.361.225-.134.05-.277.074-.42.068-.143-.005-.283-.039-.413-.099a.99253.99253 0 01-.34-.24l-8.6-9.2c2.03-.553 4.09-.987 6.17-1.3h5.87z" fill="#fff"/><path d="M304 280.99v6.5l1.66 3.7c.058.131.142.248.246.346.104.099.227.175.361.225.134.05.277.074.42.068.143-.005.283-.039.413-.099.129-.055.245-.137.34-.24l8.6-9.2c-2.03-.553-4.09-.987-6.17-1.3H304z" fill="#fff"/><path d="M313.06 271.02s-.46 4.8-3.26 7.91v2.31l-5.73 6.25-5.88-6.5v-2s-2.5-2-3.2-8.09c0 0-3.1.31-2.74-2.76.36-3.07 2.87-2.25 2.87-2.25s1.31 3.44 6.21 3.5c4.9.06 11.74-7.2 11.74-7.2v4c.339-.376.813-.603 1.319-.631.506-.028 1.002.145 1.381.481.202.19.366.417.48.67 1.46 2.23-3.19 4.31-3.19 4.31z" fill="#F9BF9D"/><path d="M309.8 278.93v2.31l-5.73 6.24-5.87-6.5v-2c.649.834 1.478 1.51 2.425 1.977.948.468 1.989.715 3.045.723 2.307-.154 4.482-1.129 6.13-2.75z" fill="#F19381"/><path d="M304 246.91c-7.82 0-14.19 6.61-14.19 14.74 0 .46 0 .92.07 1.37.276 3.233 1.6 6.288 3.77 8.7.426.468.88.908 1.36 1.32v-2.59c-.504-.56-.959-1.163-1.36-1.8-1.102-1.751-1.771-3.739-1.95-5.8 0-.4-.06-.81-.06-1.21-.086-1.638.155-3.277.708-4.821.553-1.544 1.408-2.963 2.515-4.174 1.107-1.211 2.443-2.189 3.931-2.878 1.489-.69 3.1-1.076 4.739-1.137 1.639-.061 3.274.204 4.81.781 1.535.577 2.941 1.453 4.135 2.579a12.3829 12.3829 0 012.818 3.975c.666 1.499 1.028 3.115 1.064 4.755v2.13c-.181 1.997-.817 3.927-1.86 5.64-.4.656-.859 1.276-1.37 1.85v2.61c.486-.419.944-.87 1.37-1.35 2.121-2.403 3.412-5.426 3.68-8.62 0-.44.06-.89.06-1.34-.02-8.12-6.38-14.73-14.24-14.73z" fill="#2D132C"/><path d="M295.11 263.31h-1.35v10.97h1.35v-10.97z" fill="#fff"/><path d="M293.63 263.31h.13v11h-.13a5.489 5.489 0 01-3.882-1.608 5.489 5.489 0 01-1.608-3.882c-.003-.723.137-1.439.412-2.107.275-.668.679-1.276 1.189-1.788s1.116-.918 1.783-1.195c.668-.277 1.383-.42 2.106-.42z" fill="var(--paletteColor1)"/><path d="M314.39 263.31h-1.35v10.97h1.35v-10.97z" fill="#fff"/><path d="M314.53 274.29h-.13v-11h.13c.722.001 1.437.145 2.103.424.667.278 1.271.686 1.78 1.199.508.513.91 1.121 1.182 1.79.273.669.41 1.385.405 2.107 0 1.452-.576 2.844-1.602 3.871-1.025 1.028-2.416 1.606-3.868 1.609zM340.45 263.61c.36-1.16-.43-2.22-2-2.7-.669-.234-1.387-.296-2.086-.178-.699.117-1.358.409-1.914.848l-2.34-2.59c1.89-1.54 4.51-2.07 7.71-1.06 3.56 1.12 5.53 3.49 4.64 6.29-1.2 3.79-5.31 3-6.1 5.48l-3.58-1.13c1.08-3.32 5.01-2.89 5.67-4.96zm-7.3 8.6c.117-.292.29-.557.509-.782.22-.225.481-.404.77-.528.289-.123.599-.189.914-.192.314-.004.626.055.917.172.553.217.997.646 1.234 1.191.237.544.249 1.161.031 1.714-.217.553-.646.997-1.191 1.234-.544.237-1.161.248-1.714.031-.553-.208-1.009-.614-1.28-1.138-.271-.524-.339-1.131-.19-1.702z" fill="var(--paletteColor1)"/><path d="M519.7 196.96s25.37 35.85-3.14 84.85c-6.63 6.23-49.48 22.71-56.7 29.51l-3.19-44.83s5.71-57.54 63.03-69.53z" fill="#0DA073"/><path d="M489.24 281.54l1.08.69c.23-.35 22.78-36 23.74-70.12h-1.29c-.94 33.75-23.31 69.08-23.53 69.43z" fill="#B0FFE7"/><path d="M553.46 269.51s-6.33 43.45-60.78 59.32c-9.107-.073-18.627-.133-28.56-.18l-4.27-52.22s43.82-37.75 93.61-6.92z" fill="#10C392"/><path d="M462.23 305.55c7.38-.47 56-4.38 77.16-26.19l-.92-.9c-20.9 21.51-69.17 25.35-76.34 25.8l.1 1.29zM141.45 259.67s-34.56-15.81-40.67 11.25c-6.11 27.06-34.09 7.88-47.84 27.26-13.75 19.38-10.76 31.78-32.36 31.78h119.18v-70.29" fill="#0DA073"/><path d="M64.1 329.96s-61.00001-17.47-58.00001-59S62.18 259.5 64.1 329.96z" fill="#B0FFE7"/><path d="M64.1 329.96v-1c-43.76-45.8-45.4-69.89-45.41-70.13l-1.29.06c.05 1 1.59 24.62 45.48 70.66l1.22.41z" fill="#10C392"/><path d="M77.59 321.18l1.77-1.78c-.08-.08-8-8-16.27-22.07-7.64-13-18.61-33.93-20.67-60.49l-1.07.08A144.83844 144.83844 0 0061 298.68c8.42 14.35 16.26 22.18 16.59 22.5zM42.42 236.81s5.89-4.2-1.07-13.76c0 0-5.61 8.07 0 13.84l1.07-.08z" fill="#FEC40C"/><path d="M42.62 247.32s7.14 1.19 9-10.48c-.03-.03-8.89 2.44-9 10.48zM42.62 247.32s-7.14 1.19-9-10.48c.03-.03 8.89 2.44 9 10.48zM45.41 258.63s7.24.25 7.53-11.57c0 0-8.47 3.58-7.53 11.57zM45.41 258.63s-6.92 2.12-10.26-9.22c0 0 9.1 1.26 10.26 9.22zM47.8 268.69s7.23.25 7.52-11.57c0 0-8.46 3.58-7.52 11.57zM47.8 268.69s-6.92 2.12-10.26-9.22c0 0 9.1 1.26 10.26 9.22zM52.28 279.46s7.15-1.12 5.21-12.78c0 0-7.64 5.11-5.21 12.78zM52.28 279.46s-6.4 3.38-11.82-7.12c0 0 9.17-.48 11.82 7.12zM57.27 289.87s7.13-1.27 4.94-12.88c0 0-7.53 5.27-4.94 12.88zM57.27 289.87s-6.32 3.52-12-6.86c.03 0 9.2-.68 12 6.86zM64.1 302.59s7-1.68 4.18-13.15c0 0-7.21 5.7-4.18 13.15zM64.1 302.59s-6.11 3.88-12.35-6.15c0 0 9.11-1.21 12.35 6.15z" fill="#FEC40C"/><path d="M83.27 329.08s-21-17.14-7.19-34c13.81-16.86-26.63-32.05-13.8-49.23 12.83-17.18-12.83-45.57 7.38-46.93 20.21-1.36 26.28 13.54 17.31 28.55-8.97 15.01 23.29 24 16.3 51.11-6.99 27.11-23.72 28.01-20 50.5z" fill="#10C392"/><path d="M82.75 329.45c-.09-.12-9-12.7-.06-30.95s4.23-36.38-3.84-45.64c-8.48-9.72-6.56-33.11-2-40.48l1.1.67c-4.26 6.92-6.08 29.8 1.91 39 8.33 9.56 13.15 28.36 4 47-8.56 17.53-.14 29.52 0 29.64l-1.11.76z" fill="#B0FFE7"/><path d="M475.75 178.39c1.201-1.542 2.539-2.971 4-4.27 1.132-1.083 1.839-2.537 1.991-4.096.152-1.56-.26-3.122-1.161-4.404-1.43-1.74-2.45-1-2.45-1s.49-4.2-3.4-4.24c-3.89-.04-4.05-1.06-5-1.25-.95-.19-1.93.61-3.63.42s-1.55-2.23-3.14-2.27c-1.59-.04-1.55 3.89-.6 7 .95 3.11 4.84 5.29 4.84 5.29l8.55 8.82z" fill="url(#paint6_linear)"/><path d="M467.57 184.01v-2.63s-2.74.08-2.86-2.3c-.12-2.38 1-13.46 1-13.46 1.779.401 3.583.679 5.4.83 2.83.23 3.66-.71 4.12-.3.46.41-.3 4.65.79 5.71 0 0 1.36-1.43 2.23.12.138.297.216.619.229.946.013.328-.038.655-.152.962-.113.308-.286.59-.509.83-.222.241-.49.435-.788.572-.151.068-.309.122-.47.16 0 0-.15 2.66-.43 4.68-.168 1.458-.262 2.923-.28 4.39.256.555.281 1.188.071 1.761-.209.574-.638 1.041-1.191 1.299-.158.068-.322.122-.49.16-2.64.83-7.63-.49-7.63-.49l.96-3.24z" fill="#F9BF9D"/><path d="M470.74 168.99l-5.58 2.56c-.18 2.12-.35 4.37-.42 5.93l4-3.62s3.1-.43 3.39-2.37c.104-.514.022-1.048-.233-1.507-.255-.458-.665-.81-1.157-.993zM469.13 187.18l3.65-7c-1.575.921-3.389 1.35-5.21 1.23v2.63l-.61 2 2.17 1.14z" fill="#F19381"/><path d="M454.43 242.23s.16 20.64 1.37 43.93c1.21 23.29 3.32 35.38 3.32 35.38h4.65s4.12-26.92 6.09-50.05c1.97-23.13 1.81-28.12 1.81-28.12l-17.24-1.14z" fill="url(#paint7_linear)"/><path d="M466.38 241.1s4.31 50.2 9.75 80.44H481s2.91-44.6 4.57-58.21c1.66-13.61 0-21.1 0-21.1l-19.19-1.13z" fill="url(#paint8_linear)"/><path d="M459.12 321.54v1.92l-11.49 5.45h16.14v-7.38l-4.65.01zM476.13 321.54v1.92l-11.26 5.45H481v-7.37h-4.87z" fill="#2D132C"/><path d="M487.07 232.09c-.138.233-.321.435-.54.595-.218.16-.466.274-.73.335-.85.17-.92 2.64.52 2.72 1.44.08 2.71-1.47 2.71-1.47l-.77-2.47-1.19.29z" fill="#F19381"/><path d="M453.39 173.64c-.441.836-1.027 1.588-1.73 2.22-.89.64-1.65.51-2 .83-.28.497-.46 1.044-.53 1.61l-4.61-1.21 1.23-3.42 6.67-1.68.97 1.65zM448 166.37s1.65.83 2.31.51c.66-.32 1.49.83 2.31.66.82-.17.23-1.15-.68-1.58-.91-.43-1-.22-2.15-.34-1.15-.12-1.85.13-1.79.75z" fill="#F9BF9D"/><path d="M492.8 215.93c.74-3.17-6.24-7.6-6.24-7.6s-.83 18-.68 23.4c.11 4 .3 7.54.39 9.08.015.203.078.4.184.574.106.174.252.32.426.426.277.206.461.512.514.853.052.34-.032.688-.234.967-.108.142-.243.261-.398.35-.154.089-.325.147-.502.17-5.844.683-11.726.987-17.61.91-13.21 0-17-1.25-14.68-4.6.61-6.168.9-12.362.87-18.56.07-12.17.15-22.6.15-22.6s-9.6 2.8-15.57 2.8c-5.97 0-5.9-3-5.45-5.9.45-2.9 9.85-20.31 9.85-20.31l5.9 1.75s-3.52 11.12-3.46 12.36c.06 1.24 6.47-1.59 9.69-3.29.43-.22.8-.43 1.16-.63l.6-.34c1.64-.91 3-1.53 6.73-1.73h3.08s.51 2.5 3.86 2.62c3.35.12 4.42-2.1 4.42-2.1s.65.18 1.66.5l.66.21c3.092.959 6.075 2.239 8.9 3.82 4.14 2.56 13.25 16.1 15.14 21.49 1.89 5.39-9.52 25.12-9.52 25.12l-5.62-3.58s5.04-12.99 5.78-16.16z" fill="var(--paletteColor1)"/><path d="M486.93 241.88c-.174-.106-.32-.252-.426-.426-.106-.174-.169-.371-.184-.574-.09-1.55-.28-5.08-.39-9.08-.15-5.37.68-23.4.68-23.4l-9.3-5.94s5.3 17.84 5.9 25.25c.6 7.41.38 8.47-1.25 10.06-1.63 1.59.12 4.38 1.78 3.85 1.66-.53 2.84 2.69-2.65 3.18 2.43-.17 4.18-.37 5.27-.52.17-.019.334-.071.484-.153.149-.083.281-.195.387-.329.106-.134.185-.287.231-.452.046-.164.059-.336.038-.506-.016-.193-.075-.38-.174-.546-.099-.166-.234-.308-.396-.414z" fill="url(#paint9_linear)"/><path d="M487.73 232.5a10.8735 10.8735 0 01-1.73 2.76c-1.08 1.19-3.44 2.75-2.7 3.91.74 1.16 3.77.91 5.84-.2 1.369-.864 2.422-2.148 3-3.66l-4.41-2.81z" fill="#F9BF9D"/><path d="M455 199.37v-7.63s-6.8 4.68-13.46 5.74c-5.24.84-6.49-1.66-6-5.2-.642 1.281-1.161 2.621-1.55 4-.45 2.87-.53 5.9 5.45 5.9s15.56-2.81 15.56-2.81z" fill="url(#paint10_linear)"/><path d="M467.16 184.01h-2.41l.87 3c-.288.287-.628.517-1 .68-.805.28-1.677.306-2.498.076-.82-.231-1.55-.708-2.092-1.366-.358-.412-.655-.873-.88-1.37l-.61.29c.252.562.59 1.081 1 1.54.471.538 1.048.973 1.695 1.278.647.304 1.35.472 2.065.492.542-.002 1.078-.108 1.58-.31.361-.15.698-.352 1-.6l.13.48.37-.1c.24-.09.42-.73.55-1.5.114.183.238.36.37.53.686.885 1.563 1.603 2.566 2.102a7.425 7.425 0 003.224.778c.626.008 1.249-.077 1.85-.25 1.67-.49 2.69-2.65 3.28-4.62l-.64-.21c-.54 1.81-1.43 3.76-2.83 4.17-1.259.331-2.588.281-3.818-.145-1.23-.425-2.307-1.207-3.092-2.245-.217-.279-.414-.573-.59-.88.22-.587.351-1.204.39-1.83v-.08l-.48.09z" fill="#801336"/><path d="M456.48 174.69h-1.23l.59 1.69h1.27l.59-1.69h-1.22z" fill="#2C3449"/><path d="M446.81 165.96l10 1.49c.368.05.722.173 1.041.362.32.189.598.44.819.738.32.441.489.975.48 1.52.001.559-.14 1.11-.41 1.6-.205.372-.491.693-.838.939-.346.246-.743.41-1.162.481l-9.86 1.6-.07-8.73z" fill="#414E6E"/><path d="M446.81 174.69c2.413 0 4.37-1.957 4.37-4.37 0-2.413-1.957-4.37-4.37-4.37-2.413 0-4.37 1.957-4.37 4.37 0 2.413 1.957 4.37 4.37 4.37z" fill="#B7C0E2"/><path d="M446.81 173.64c1.834 0 3.32-1.486 3.32-3.32 0-1.834-1.486-3.32-3.32-3.32-1.834 0-3.32 1.486-3.32 3.32 0 1.834 1.486 3.32 3.32 3.32z" fill="#414E6E"/><path d="M446.81 173.28c1.635 0 2.96-1.325 2.96-2.96s-1.325-2.96-2.96-2.96-2.96 1.325-2.96 2.96 1.325 2.96 2.96 2.96z" fill="#2C3449"/><path d="M449.14 170.32c0 .306-.06.609-.177.892-.117.282-.289.539-.505.756-.217.216-.474.388-.756.505-.283.117-.586.177-.892.177" stroke="#fff" stroke-miterlimit="10" stroke-linecap="round"/><path d="M445.4 169.83c.447 0 .81-.363.81-.81 0-.447-.363-.81-.81-.81-.447 0-.81.363-.81.81 0 .447.363.81.81.81z" fill="#fff"/><path d="M464.39 173.67h-1.22l.59 1.69H465l.59-1.69h-1.2zM467.55 167.94h1.85c.664-.003 1.302.258 1.774.725.473.466.741 1.101.746 1.765.002.344-.07.685-.21 1v.08c-.204.421-.525.774-.923 1.019-.399.244-.859.37-1.327.361h-3.81l1.9-4.95z" fill="#353F5A"/><path d="M456.25 165.62l11 1.64c.397.058.779.194 1.123.402.343.208.642.483.877.808.351.485.537 1.071.53 1.67.004.612-.151 1.215-.45 1.75-.228.418-.549.778-.94 1.05-.39.273-.839.451-1.31.52l-10.83 1.76v-9.6z" fill="#414E6E"/><path d="M456.25 175.22c2.651 0 4.8-2.149 4.8-4.8s-2.149-4.8-4.8-4.8-4.8 2.149-4.8 4.8 2.149 4.8 4.8 4.8z" fill="#B7C0E2"/><path d="M456.25 174.07c2.016 0 3.65-1.634 3.65-3.65s-1.634-3.65-3.65-3.65-3.65 1.634-3.65 3.65 1.634 3.65 3.65 3.65z" fill="#414E6E"/><path d="M456.25 173.67c1.795 0 3.25-1.455 3.25-3.25s-1.455-3.25-3.25-3.25-3.25 1.455-3.25 3.25 1.455 3.25 3.25 3.25z" fill="#2C3449"/><path d="M458.81 170.42c0 .679-.27 1.33-.75 1.81s-1.131.75-1.81.75" stroke="#fff" stroke-miterlimit="10" stroke-linecap="round"/><path d="M454.69 169.88c.492 0 .89-.398.89-.89s-.398-.89-.89-.89-.89.398-.89.89.398.89.89.89z" fill="#fff"/><path d="M464.22 191.12c-.501.204-1.039.306-1.58.3-.716-.018-1.42-.184-2.069-.487-.648-.302-1.228-.736-1.701-1.273a8.67363 8.67363 0 01-1.72-3.51 38.7691 38.7691 0 01-1-9.78h.68c-.067 3.166.248 6.329.94 9.42.269 1.239.82 2.399 1.61 3.39.543.656 1.274 1.131 2.094 1.362.82.23 1.69.205 2.496-.072 1.53-.63 2.4-2.28 2.34-4.41l-.06-2.06h.68l.06 2c.06 2.49-.99 4.38-2.77 5.12z" fill="#E07A00"/><path d="M478.17 185.23c-.32 1.9-1.34 6.57-3.91 7.32-.598.171-1.218.258-1.84.26-1.12-.014-2.221-.28-3.224-.779a7.46333 7.46333 0 01-2.566-2.101c-1.229-1.725-1.972-3.749-2.15-5.86-.11-.83-.18-1.65-.25-2.44-.18-2.1-.19-4.26-.17-6.28h.68c0 2 0 4.14.17 6.21.07.83.14 1.66.25 2.48.158 1.968.849 3.856 2 5.46.786 1.037 1.862 1.818 3.092 2.243 1.23.426 2.559.477 3.818.147 2.22-.65 3.16-5.17 3.44-6.88l.66.22z" fill="#F79C1D"/><path d="M118 321.81v1.62l10.7 5.45h-16.16v-7.07H118z" fill="#2D132C"/><path d="M133 321.81v1.62l10.7 5.45h-16.19v-7.07H133z" fill="#2D132C"/><path d="M139 261.06s7.14 22.79 8 29.82c.86 7.03-14 30.93-14 30.93h-5.44s4.91-18.37 5.44-23c.53-4.63-7.48-21.77-7.48-21.77l-3.75-14.18 3.48-4.23 13.75 2.43z" fill="url(#paint11_linear)"/><path d="M109.67 252.44s-2.95 5.75-2 15.57c.95 9.82 11.18 20.87 11.49 24.88.31 4.01-6.62 28.92-6.62 28.92H118s12.47-22.2 16-29.31c3.53-7.11-8.65-25.12-9.33-38.05l-15-2.01z" fill="url(#paint12_linear)"/><path d="M150.39 212.02c8.251 0 14.94-5.852 14.94-13.07s-6.689-13.07-14.94-13.07-14.94 5.852-14.94 13.07 6.689 13.07 14.94 13.07z" fill="url(#paint13_linear)"/><path d="M140.36 212.72l3.67-6.77s-2.23-.94-1.25-3.78 4.91-1.25 4.57 1.66c.687-.172 1.317-.521 1.828-1.013.51-.491.883-1.107 1.082-1.787.57-2.26 1.06-2.57 1.59-2.23.53.34 1.93 4.54 4.35 5 2.42.46 3.06-.16 3.1.68.04.84-3.78 8.2-5.71 10.13-.496.545-1.127.95-1.829 1.174-.702.225-1.451.261-2.171.106l-1.59 3.27-6.55 1.47s-4.45-5.46-1.09-7.91z" fill="#F9BF9D"/><path d="M144.57 212.72l.73 7 2.65-.6 1.63-3.31s-4.01-.69-5.01-3.09z" fill="#F19381"/><path d="M109.89 250.02c-.581.403-1.029.971-1.286 1.63-.256.659-.31 1.38-.154 2.07.46 2.57 22 9.76 27.14 10.29 4.12.42 5.28-.61 5.27-1.39.031-1.009.23-2.006.59-2.95l6.35-19.59s3.52 10.85 6.77 14.25c3.25 3.4 20.11-10.36 20.11-10.36l-1.44-5.84s-11.11 6.14-12.92 6.22c-1.81.08-2.57-10.66-2.8-15.42-.23-4.76-.46-6.12-1.59-7.34-1.13-1.22-7.08-4.27-7.08-4.27-.638.724-1.478 1.241-2.411 1.485s-1.918.204-2.829-.115c-3.25-1.11-3.25-6-3.25-6h-16.48c-4.08 0-20.72 13.27-24.57 17.58-3.85 4.31-10.59 17.31-10.59 17.31l3.86 3s11.34-12.17 15.5-15.11c4.16-2.94 12.55-5 12.55-5l-10.74 19.55z" fill="var(--paletteColor1)"/><path d="M176.92 237.39s1.16 0 1.3 2.1c.062.989-.22 1.969-.797 2.775-.578.805-1.416 1.386-2.373 1.645-1.9.51-3.2.11-2.47-2.38.223-.829.646-1.591 1.232-2.218.585-.628 1.316-1.102 2.128-1.382.368-.093.705-.279.98-.54zM88.73 247.6s-8 8.58-7.34 10.74c.66 2.16 6.7-2.72 7.34-2.91.64-.19.75 1.62 1.93.68 1.18-.94.22-4.31 1.92-5.48l-3.85-3.03z" fill="#F9BF9D"/><path d="M129.7 227.5l-9.07 3-10.74 19.5c-.581.403-1.029.971-1.286 1.63-.256.659-.31 1.38-.154 2.07.24 1.34 6.2 3.94 12.59 6.19-9.39-4-7.48-8.49-3.17-15.07 4.31-6.58 11.83-17.32 11.83-17.32z" fill="url(#paint14_linear)"/><path d="M162 252.75c-.2.07-5.41 2-7-2.73-1.59-4.73-3.19-22.52-3.19-22.52l-4 12.58s3.51 10.85 6.76 14.25c1.18 1.23 4.14.21 7.43-1.58z" fill="url(#paint15_linear)"/><path opacity=".5" d="M191.84 218.09c-.73 3.38-2.35 7.16-5.34 9.6l-.44.34H186c-.12.09-.24.18-.37.26l-.12.07-.3.19-.17.09-.25.14-.21.1-.2.1-.24.1-.17.06-.27.1h-.14l-.28.08c-.414-.119-.815-.277-1.2-.47-.765-.396-1.43-.963-1.941-1.656-.512-.694-.857-1.496-1.009-2.344-.77-4.31.15-10.93 5.31-14.87 1.07-.847 2.287-1.491 3.59-1.9.72-.232 1.474-.337 2.23-.31.142.163.275.333.4.51.669.959 1.144 2.039 1.4 3.18 0 .21.09.43.12.65 0 .22.06.43.07.64.119 1.79-.019 3.589-.41 5.34z" fill="url(#paint16_linear)"/><path d="M175.67 234.41l2.93-6.07 1.72.78-2.93 6.07-1.72-.78z" fill="#B7C0E2"/><path d="M170.17 244.5l4.62-9.55 2.71 1.24-4.62 9.55-2.71-1.24z" fill="#414E6E"/><path d="M172.72 247.39l-3.33-1.51c-.189-.095-.335-.259-.407-.458-.073-.198-.067-.418.017-.612a.26817.26817 0 010-.08c.105-.176.271-.307.467-.368.195-.061.407-.048.593.038l3.32 1.52c.099.044.188.108.262.187.074.078.132.171.17.273.038.101.056.209.052.317-.004.108-.029.215-.074.313.005.026.005.054 0 .08-.106.177-.277.307-.475.362-.199.056-.412.034-.595-.062zM177.7 236.46l-3.33-1.51c-.1-.05-.189-.119-.262-.204-.072-.084-.128-.182-.162-.288-.035-.107-.048-.218-.038-.33.009-.111.04-.219.092-.318v-.08c.105-.176.271-.307.467-.368.195-.061.407-.048.593.038l3.32 1.52c.099.044.188.108.262.187.074.078.132.171.17.273.038.101.056.209.052.317-.004.108-.029.215-.074.313.004.027.004.053 0 .08-.047.096-.112.182-.193.253-.08.071-.174.125-.275.159-.101.035-.208.049-.315.041a.80213.80213 0 01-.307-.083z" fill="#2C3449"/><path d="M178.54 228.47l-2.6 5.37 4.21-4.36-.84-.82-.5-.22-.27.03z" fill="#8F9BC1"/><path d="M190.24 207.81c-.756-.023-1.509.082-2.23.31-1.301.419-2.52 1.062-3.6 1.9-5.15 3.94-6.07 10.57-5.3 14.88.195 1.065.689 2.052 1.423 2.847.735.795 1.681 1.365 2.727 1.643-.749.224-1.534.299-2.311.219-.778-.08-1.532-.312-2.219-.683-.687-.372-1.295-.876-1.787-1.482-.493-.607-.861-1.305-1.083-2.054-.088-.287-.152-.582-.19-.88-.77-4.65.14-11.79 5.3-16.05 1.8-1.48 4.43-2.85 6.82-2.22.6.153 1.162.429 1.65.81.291.226.559.481.8.76z" fill="#B7C0E2"/><path d="M191.84 218.09c-.73 3.38-2.35 7.16-5.34 9.6l-.44.34H186c-.12.09-.24.18-.37.26l-.12.07-.3.19-.17.09-.25.14-.21.1-.2.1-.24.1-.17.06-.27.1h-.14l-.28.08c-.414-.119-.815-.277-1.2-.47.715-.333 1.387-.753 2-1.25 4.77-3.88 6.06-11.2 5.8-14.79-.133-1.729-.758-3.384-1.8-4.77.721-.225 1.475-.326 2.23-.3.14.17.27.33.4.51.671.961 1.147 2.045 1.4 3.19 0 .21.09.43.12.65 0 .22.06.43.07.64.104 1.799-.05 3.605-.46 5.36z" fill="#8F9BC1"/></g><defs><linearGradient id="paint0_linear" x1="301" y1="307.57" x2="301" y2="367.37" gradientUnits="userSpaceOnUse"><stop stop-color="#CDD9FF"/><stop offset="1" stop-color="#CDD9FF" stop-opacity="0"/></linearGradient><linearGradient id="paint1_linear" x1="240.401" y1="181.906" x2="372.596" y2="468.74" gradientUnits="userSpaceOnUse"><stop stop-color="#F3F7FF"/><stop offset="1" stop-color="#CDD9FF"/></linearGradient><linearGradient id="paint2_linear" x1="302.735" y1="299.655" x2="302.735" y2="255.344" gradientUnits="userSpaceOnUse"><stop stop-color="#2D132C"/><stop offset="1" stop-color="#801336"/></linearGradient><linearGradient id="paint3_linear" x1="304.03" y1="348.997" x2="304.03" y2="296.623" gradientUnits="userSpaceOnUse"><stop stop-color="#801336"/><stop offset="1" stop-color="var(--paletteColor1)"/></linearGradient><linearGradient id="paint4_linear" x1="31956.8" y1="-446510" x2="32375.5" y2="-444861" gradientUnits="userSpaceOnUse"><stop stop-color="#2D132C"/><stop offset="1" stop-color="#801336"/></linearGradient><linearGradient id="paint5_linear" x1="36291" y1="-446621" x2="34375.9" y2="-444438" gradientUnits="userSpaceOnUse"><stop stop-color="#2D132C"/><stop offset="1" stop-color="#801336"/></linearGradient><linearGradient id="paint6_linear" x1="17722.6" y1="-330709" x2="17408" y2="-331039" gradientUnits="userSpaceOnUse"><stop stop-color="#2D132C"/><stop offset="1" stop-color="#801336"/></linearGradient><linearGradient id="paint7_linear" x1="15043.9" y1="-4793780" x2="15867.7" y2="-4793690" gradientUnits="userSpaceOnUse"><stop stop-color="#2D132C"/><stop offset="1" stop-color="#801336"/></linearGradient><linearGradient id="paint8_linear" x1="18181.8" y1="-4931690" x2="16840.9" y2="-4931680" gradientUnits="userSpaceOnUse"><stop stop-color="#2D132C"/><stop offset="1" stop-color="#801336"/></linearGradient><linearGradient id="paint9_linear" x1="514.898" y1="214.938" x2="471.083" y2="215.332" gradientUnits="userSpaceOnUse"><stop stop-color="#801336"/><stop offset="1" stop-color="#801336" stop-opacity="0"/></linearGradient><linearGradient id="paint10_linear" x1="18443.3" y1="-78210.1" x2="18400.2" y2="-78554.1" gradientUnits="userSpaceOnUse"><stop stop-color="#801336"/><stop offset="1" stop-color="#801336" stop-opacity="0"/></linearGradient><linearGradient id="paint11_linear" x1="13029.4" y1="-3039190" x2="14291.1" y2="-3039020" gradientUnits="userSpaceOnUse"><stop stop-color="#2D132C"/><stop offset="1" stop-color="#801336"/></linearGradient><linearGradient id="paint12_linear" x1="13229.3" y1="-3666190" x2="14860.4" y2="-3666160" gradientUnits="userSpaceOnUse"><stop stop-color="#2D132C"/><stop offset="1" stop-color="#801336"/></linearGradient><linearGradient id="paint13_linear" x1="4530.89" y1="-508451" x2="4742.98" y2="-509318" gradientUnits="userSpaceOnUse"><stop stop-color="#2D132C"/><stop offset="1" stop-color="#801336"/></linearGradient><linearGradient id="paint14_linear" x1="10517.8" y1="-791744" x2="11020.9" y2="-791595" gradientUnits="userSpaceOnUse"><stop stop-color="#801336"/><stop offset="1" stop-color="#801336" stop-opacity="0"/></linearGradient><linearGradient id="paint15_linear" x1="7495.81" y1="-563392" x2="7866.32" y2="-563338" gradientUnits="userSpaceOnUse"><stop stop-color="#801336"/><stop offset="1" stop-color="#801336" stop-opacity="0"/></linearGradient><linearGradient id="paint16_linear" x1="196.88" y1="238.391" x2="170.409" y2="222.263" gradientUnits="userSpaceOnUse"><stop stop-color="#B7C0E2"/><stop offset="1" stop-color="#B7C0E2" stop-opacity="0"/></linearGradient><clipPath id="clip0"><path fill="#fff" d="M0 0h601v366.81H0z"/></clipPath></defs></svg>